<svg width="54" height="55" viewBox="0 0 54 55" fill="none" xmlns="http://www.w3.org/2000/svg">
<rect x="0.5" y="1" width="53" height="53" rx="26.5" fill="white"/>
<rect x="0.5" y="1" width="53" height="53" rx="26.5" stroke="#E7E7E7"/>
<path d="M26.166 42.5H16.9993C16.1153 42.5 15.2674 42.1488 14.6423 41.5237C14.0172 40.8986 13.666 40.0507 13.666 39.1667V19.1667C13.666 18.2826 14.0172 17.4348 14.6423 16.8096C15.2674 16.1845 16.1153 15.8333 16.9993 15.8333H36.9994C37.8834 15.8333 38.7313 16.1845 39.3564 16.8096C39.9815 17.4348 40.3327 18.2826 40.3327 19.1667V29.1667M33.666 12.5V19.1667M20.3327 12.5V19.1667M13.666 25.8333H40.3327M31.9993 39.1667L35.3327 42.5L41.9994 35.8333" stroke="#25703F" stroke-width="3" stroke-linecap="round" stroke-linejoin="round"/>
</svg>
