<svg width="54" height="55" viewBox="0 0 54 55" fill="none" xmlns="http://www.w3.org/2000/svg">
<rect x="0.5" y="1" width="53" height="53" rx="26.5" fill="white"/>
<rect x="0.5" y="1" width="53" height="53" rx="26.5" stroke="#E7E7E7"/>
<g clip-path="url(#clip0_609_4194)">
<path d="M33.4167 45.0011H33.3686C32.9995 44.9951 32.6355 44.9145 32.2984 44.7641C31.9613 44.6137 31.6581 44.3967 31.4071 44.1261L26.7871 39.369L28.8959 37.3536L33.424 42.0203L42.2921 33.1507L44.3542 35.2084L35.3694 44.1946C35.1138 44.452 34.8094 44.6558 34.4742 44.7943C34.1389 44.9328 33.7794 45.0031 33.4167 45.0011V45.0011Z" fill="#25703F"/>
<path d="M25.5414 18.75V25.4379L21.5938 29.3856L23.6558 31.4477L28.4581 26.6454V18.75H25.5414Z" fill="#25703F"/>
<path d="M26.9998 10C22.5104 10.0376 18.2072 11.7992 14.9802 14.9204C11.7531 18.0416 9.84903 22.2837 9.66173 26.7693C9.47444 31.2549 11.0182 35.641 13.9739 39.0203C16.9295 42.3997 21.0709 44.5139 25.5415 44.9256V42.009C22.6684 41.7225 19.9449 40.5902 17.7156 38.7553C15.4862 36.9205 13.8513 34.4656 13.0176 31.7013C12.1839 28.9369 12.1889 25.9874 13.032 23.226C13.8752 20.4645 15.5185 18.0152 17.7541 16.188C19.9897 14.3608 22.717 13.2377 25.591 12.9611C28.465 12.6844 31.3566 13.2664 33.8997 14.6336C36.4428 16.0008 38.5232 18.0916 39.8777 20.6415C41.2321 23.1914 41.7998 26.0857 41.5087 28.9583H44.4254C44.4662 28.4756 44.4998 27.9929 44.4998 27.5C44.4948 22.8603 42.6494 18.412 39.3686 15.1312C36.0878 11.8504 31.6395 10.005 26.9998 10V10Z" fill="#25703F"/>
</g>
<defs>
<clipPath id="clip0_609_4194">
<rect width="35" height="35" fill="white" transform="translate(9.5 10)"/>
</clipPath>
</defs>
</svg>
