<svg width="54" height="55" viewBox="0 0 54 55" fill="none" xmlns="http://www.w3.org/2000/svg">
<rect x="0.5" y="1" width="53" height="53" rx="26.5" fill="white"/>
<rect x="0.5" y="1" width="53" height="53" rx="26.5" stroke="#E7E7E7"/>
<g clip-path="url(#clip0_609_4200)">
<path d="M45.4337 34.3712L40.7424 39.0625L45.4337 43.7538L43.2538 45.9337L38.5625 41.2424L33.8712 45.9337L31.6913 43.7538L36.3826 39.0625L31.6913 34.3712L33.8712 32.1913L38.5625 36.8826L43.2538 32.1913L45.4337 34.3712ZM11.5833 27.5C11.5815 25.4094 12.005 23.3402 12.8279 21.4183C13.6509 19.4964 14.8561 17.762 16.3703 16.3205C17.8846 14.879 19.6762 13.7606 21.6363 13.0332C23.5963 12.3058 25.6838 11.9847 27.7718 12.0894C29.8599 12.194 31.9048 12.7223 33.7823 13.6421C35.6598 14.5618 37.3305 15.8538 38.693 17.4395C40.0555 19.0252 41.0813 20.8714 41.7079 22.866C42.3345 24.8605 42.5489 26.9617 42.338 29.0417H45.4214C45.4646 28.5314 45.5 28.0211 45.5 27.5C45.5 23.8411 44.415 20.2643 42.3822 17.222C40.3494 14.1796 37.4601 11.8085 34.0797 10.4082C30.6992 9.00802 26.9795 8.64165 23.3908 9.35548C19.8022 10.0693 16.5058 11.8313 13.9185 14.4185C11.3313 17.0058 9.56931 20.3022 8.85548 23.8908C8.14165 27.4795 8.50802 31.1992 9.90824 34.5797C11.3085 37.9601 13.6796 40.8494 16.722 42.8822C19.7643 44.915 23.3411 46 27 46C27.5211 46 28.0314 45.9646 28.5417 45.9214V42.838C26.3976 43.0555 24.2319 42.8206 22.1843 42.1486C20.1367 41.4766 18.2529 40.3825 16.6546 38.9369C15.0564 37.4914 13.7792 35.7265 12.9056 33.7565C12.0321 31.7864 11.5816 29.655 11.5833 27.5ZM25.4583 18.25V25.3201L21.2851 29.4934L23.465 31.6733L28.5417 26.5966V18.25H25.4583Z" fill="#C11106"/>
</g>
<defs>
<clipPath id="clip0_609_4200">
<rect width="37" height="37" fill="white" transform="translate(8.5 9)"/>
</clipPath>
</defs>
</svg>
